<?xml version="1.0" encoding="UTF-8" standalone="no"?>
<!-- Created with Inkscape (http://www.inkscape.org/) -->

<svg
   version="1.1"
   id="svg9"
   width="250"
   height="249.99998"
   viewBox="0 0 250.00001 249.99998"
   sodipodi:docname="logo.svg"
   inkscape:version="1.2.1 (9c6d41e410, 2022-07-14)"
   xmlns:inkscape="http://www.inkscape.org/namespaces/inkscape"
   xmlns:sodipodi="http://sodipodi.sourceforge.net/DTD/sodipodi-0.dtd"
   xmlns="http://www.w3.org/2000/svg"
   xmlns:svg="http://www.w3.org/2000/svg">
  <defs
     id="defs13" />
  <sodipodi:namedview
     id="namedview11"
     pagecolor="#ffffff"
     bordercolor="#000000"
     borderopacity="0.25"
     inkscape:showpageshadow="2"
     inkscape:pageopacity="0.0"
     inkscape:pagecheckerboard="0"
     inkscape:deskcolor="#d1d1d1"
     showgrid="false"
     inkscape:zoom="0.93003699"
     inkscape:cx="111.82351"
     inkscape:cy="198.91682"
     inkscape:window-width="1366"
     inkscape:window-height="715"
     inkscape:window-x="-8"
     inkscape:window-y="-8"
     inkscape:window-maximized="1"
     inkscape:current-layer="g15" />
  <g
     inkscape:groupmode="layer"
     inkscape:label="Image"
     id="g15"
     transform="translate(-161.61238,-3.1966245)">
    <g
       id="g238"
       transform="matrix(1.0192791,0,0,1.0200878,80.579687,-60.558863)"
       style="stroke-width:0.980697">
      <path
         style="fill:#9e9ba6;stroke-width:0.980697"
         d="M 132.5,306.53129 C 108.89315,301.2906 90.167622,284.57431 82.330418,261.74488 L 79.5,253.5 V 185 116.5 l 2.823633,-7.9904 C 89.639641,87.806536 105.29691,72.052525 125.28549,65.282294 L 133.5,62.5 h 68 68 l 8.71504,2.856484 c 17.24707,5.652982 31.22495,17.754699 39.1015,33.853157 2.50004,5.109699 5.27551,12.682469 6.16772,16.828379 1.70863,7.93974 1.71843,20.57695 0.0157,20.29837 -0.55,-0.09 -2.37317,-4.23139 -4.05149,-9.20312 -1.67833,-4.97173 -4.79226,-11.56702 -6.91986,-14.6562 C 304.71986,101.13906 291.02561,91.394792 278,87.907903 c -3.1449,-0.841875 -20.87676,-1.333427 -58.88388,-1.632345 -56.86622,-0.447241 -66.29946,0.01396 -76.96607,3.762972 -13.14586,4.620397 -26.59493,16.71544 -32.51966,29.24562 C 103.43275,132.39154 103.5,131.51703 103.5,199 v 61.5 l 2.67921,7.3346 c 1.47357,4.03404 4.17357,9.81545 6,12.8476 4.29906,7.13705 14.71008,16.88513 22.76758,21.3178 9.31157,5.12258 8.33803,6.9255 -2.44679,4.53129 z m 24.69318,-10.59841 c -13.76569,-2.71039 -30.72897,-15.98006 -37.08959,-29.01366 -3.63505,-7.44862 -6.1406,-19.7561 -5.19958,-25.54079 l 0.63092,-3.87843 1.73253,2.47251 c 0.9529,1.35987 1.73254,3.06021 1.73254,3.77851 0,0.71831 1.37554,4.03094 3.05676,7.36141 5.69673,11.28517 15.53586,19.70783 27.87992,23.86624 6.01997,2.02798 7.7286,2.08322 55.88657,1.80663 L 255.5,276.5 l 7.85431,-3.75025 c 13.58474,-6.48639 24.03621,-19.68244 26.64041,-33.63624 0.58037,-3.10973 1.00528,-24.68322 1.00528,-51.0399 0,-49.40248 -0.19784,-51.61031 -5.5758,-62.2232 -3.41708,-6.74327 -10.67971,-14.40327 -17.0929,-18.02812 -9.04206,-5.11073 -9.30238,-7.52362 -0.63433,-5.87976 20.70711,3.92702 36.70422,19.688 41.76211,41.14567 1.24078,5.26391 1.514,15.28978 1.52614,56.00184 0.0139,46.49465 -0.1112,50.08263 -2.00356,57.48165 -4.83585,18.90802 -20.07126,33.93427 -39.44176,38.90031 -4.99519,1.28063 -14.22316,1.51026 -57,1.41843 -28.07194,-0.0603 -52.97797,-0.49116 -55.34672,-0.95755 z m -39.9201,-72.04675 c -5.90463,-1.70419 -6.40193,-4.68876 -5.31807,-31.91684 0.72917,-18.3177 0.63243,-21.76658 -0.68819,-24.53594 -3.11935,-6.54136 1.65485,-13.30848 13.52959,-19.17729 6.61204,-3.26785 8.51646,-3.75606 14.65173,-3.75606 12.21658,0 20.6013,4.91615 22.11113,12.96426 0.97337,5.18849 -1.01521,9.56928 -7.99753,17.61833 l -6.36864,7.34163 3.59563,1.23612 c 7.95639,2.73528 11.04453,7.08447 9.78761,13.78443 -0.54141,2.88594 -2.47103,5.50901 -8.38973,11.40473 -7.7932,7.76294 -13.77801,11.12529 -24.68661,13.86928 -2.2,0.5534 -4.675,1.25199 -5.5,1.55244 -0.825,0.30044 -2.95211,0.12715 -4.72692,-0.38509 z m 12.41825,-10.61451 c 10.55898,-8.21092 20.29925,-17.65872 19.03405,-18.46251 -3.29526,-2.09349 -17.92737,0.21968 -21.37357,3.37891 -3.5226,3.22928 -7.50293,22.72301 -4.10181,20.08869 0.6875,-0.5325 3.5861,-2.78479 6.44133,-5.00509 z m 7.89855,-38.40926 C 143.7922,171.36199 150,165.92935 150,164.00187 c 0,-1.70348 -7.41309,-0.84874 -12.15513,1.4015 -5.93197,2.81491 -7.53073,4.84743 -7.05026,8.96304 0.23331,1.99847 0.60679,3.63359 0.82994,3.63359 0.22316,0 2.90756,-1.41194 5.96533,-3.13764 z m 31.4827,47.50278 c -1.42048,-1.80584 -2.07031,-4.08693 -2.06538,-7.25 0.0118,-7.58403 10.59535,-45.12087 14.37465,-50.98299 0.62732,-0.97304 2.11641,-1.19864 5.15906,-0.7816 3.86925,0.53034 4.73891,0.22084 9.11814,-3.24508 5.92859,-4.69216 9.80598,-6.72688 14.49514,-7.60657 9.41056,-1.76543 19.08466,10.26457 14.56037,18.10623 -1.51154,2.61987 -14.9163,13.87447 -19.95686,16.75572 -2.05826,1.17653 -3.74576,2.41145 -3.75,2.74426 -0.004,0.33281 3.24616,1.80644 7.2231,3.27472 8.31502,3.0699 20.7692,10.28659 20.7692,12.0349 0,2.07384 -2.30281,3.58551 -5.45,3.57763 -3.41841,-0.009 -11.01288,-2.24261 -23.36822,-6.87417 -4.57502,-1.715 -8.72457,-3.11819 -9.22122,-3.11819 -0.49664,0 -1.88003,3.2625 -3.07418,7.25 -2.47661,8.26986 -6.12181,15.10107 -9.2137,17.26671 -3.31154,2.3195 -7.24048,1.8482 -9.6001,-1.15157 z m 36.12836,-47.32837 c 6.51151,-6.69585 7.83453,-10.14071 2.91818,-7.59837 -3.20872,1.6593 -7.4161,6.30143 -9.68111,10.68148 -2.47504,4.7862 0.3728,3.48791 6.76293,-3.08311 z m 33.20093,42.71897 c -1.59183,-3.55236 -1.88119,-6.44593 -1.775,-17.75 0.0764,-8.12967 0.76149,-16.43929 1.72115,-20.87539 1.16483,-5.38451 1.30978,-7.90124 0.5381,-9.34314 -0.5809,-1.08542 -0.81157,-2.94809 -0.51261,-4.13927 0.70924,-2.82584 10.58311,-9.29587 15.43814,-10.11612 6.68763,-1.12987 18.82517,4.18091 21.1334,9.24691 0.58022,1.27346 1.05495,4.5704 1.05495,7.32653 0,4.53094 -0.40727,5.4375 -4.25,9.46008 -2.3375,2.44691 -6.725,5.68321 -9.75,7.19179 l -5.5,2.74287 -1.83231,8 c -2.51555,10.98306 -4.42633,16.05971 -7.35437,19.53949 -3.65981,4.34944 -6.57539,3.92943 -8.91145,-1.28375 z m 23.86375,-35.59257 c 6.04654,-3.98707 7.45256,-8.99127 3.2922,-11.71724 -1.34321,-0.8801 -3.48071,-1.45298 -4.75,-1.27306 -2.13937,0.30325 -2.32686,0.85632 -2.56862,7.57713 -0.14344,3.9875 0.0816,7.24703 0.5,7.24341 0.41844,-0.004 2.00533,-0.82723 3.52642,-1.83024 z"
         id="path252" />
      <path
         style="fill:#965b6f;stroke-width:0.980697"
         d="M 131.5,304.87445 C 109.76723,299.85069 91.045693,282.91482 83.953981,261.8634 80.24182,250.84401 79.873016,242.72082 80.214571,179.5 c 0.328222,-60.75292 0.338981,-61.02835 2.656159,-68 9.251617,-27.835156 29.50826,-44.535806 57.62927,-47.512625 12.03691,-1.274197 111.60897,-1.240109 123,0.04211 14.80783,1.666825 25.92437,6.341355 37.35492,15.707837 10.25766,8.405375 19.13604,24.554148 21.75857,39.576378 1.83687,10.5218 0.49929,13.00979 -2.5749,4.78949 -6.21118,-16.60854 -19.7636,-29.839727 -36.70066,-35.830741 L 275.5,85.5 215.63656,85.212573 c -57.82171,-0.277623 -60.13611,-0.216745 -67.85835,1.784956 -9.16363,2.375324 -14.10568,4.703815 -21.36392,10.065787 -11.11661,8.212324 -18.96123,19.935354 -22.43885,33.532694 C 102.11724,137.8615 102,141.8389 102,197.61074 c 0,38.88641 0.37514,61.1145 1.09009,64.59004 2.92804,14.23397 14.53578,30.74234 27.04558,38.46382 3.22538,1.99082 5.86433,4.00571 5.86433,4.47754 0,0.47182 -0.1125,0.81266 -0.25,0.75741 -0.1375,-0.0553 -2.05,-0.51654 -4.25,-1.0251 z m 26.5,-9.96092 c -7.09686,-1.36785 -19.95178,-8.27282 -25.745,-13.82882 -9.41894,-9.03327 -14.91834,-19.67368 -15.96585,-30.89125 -0.74254,-7.95158 0.21946,-7.66519 4.67872,1.39284 4.56485,9.27253 13.12457,17.60084 22.876,22.25757 L 151.5,277.5 h 52.5 52.5 l 5.85804,-2.74414 c 12.46451,-5.83887 21.45886,-15.15537 26.81624,-27.77674 L 291.5,241.5 V 189 c 0,-52.49551 -2e-4,-52.50046 -2.29223,-57.89415 -4.65928,-10.96438 -10.8433,-18.31277 -21.24621,-25.24654 -7.51301,-5.0076 9.01339,-1.1835 17.09806,3.95637 11.68645,7.42972 20.4309,20.37116 23.43598,34.68432 2.14917,10.23644 2.14387,98.80301 -0.007,109 -2.18543,10.36311 -6.732,18.74584 -14.37116,26.49672 -7.25274,7.35882 -17.27879,12.9111 -26.91714,14.90631 -6.38068,1.32084 -102.35443,1.33008 -109.20078,0.0105 z m 12.07258,-73.54839 C 168.93266,219.91597 168,217.30484 168,215.56263 c 0,-7.69661 10.84062,-45.75362 14.34845,-50.37158 0.67843,-0.89313 2.19143,-1.10669 4.76284,-0.67225 3.32281,0.56139 4.39665,0.16814 9.07864,-3.32466 6.28297,-4.68715 10.11274,-6.69532 14.62069,-7.66647 6.61263,-1.42456 15.19864,7.60072 13.70411,14.40524 -0.69067,3.14461 -13.49772,14.52165 -21.18085,18.81583 -2.43448,1.36065 -4.27733,2.92091 -4.09522,3.46724 0.18211,0.54633 3.98264,2.44389 8.44561,4.21682 9.25057,3.67479 19.69306,9.58327 19.55991,11.0672 -0.34479,3.84224 -6.6181,2.89884 -24.12979,-3.62872 C 197.40231,199.74208 191.92174,198 190.93535,198 c -1.32827,0 -2.21482,1.49137 -3.41812,5.75 -2.37487,8.40502 -7.43683,17.89234 -10.22403,19.16227 -3.59052,1.63595 -4.94511,1.34571 -7.22062,-1.54713 z m 31.60533,-41.24678 C 207.82939,175.66225 215.62366,164 212.45034,164 c -1.65427,0 -6.40143,3.31608 -9.54502,6.66758 C 199.52454,174.27195 195,180.9686 195,182.36803 c 0,1.44401 2.95157,0.44967 6.67791,-2.24967 z m -87.67205,40.3887 c -1.05027,-1.26549 -1.19639,-6.56571 -0.7169,-26.00368 0.5144,-20.85356 0.37689,-24.86593 -0.94287,-27.51145 -1.91283,-3.83436 -0.73296,-7.31054 3.97085,-11.69907 15.29643,-14.27118 41.3208,-12.40173 44.24361,3.17822 0.81641,4.35181 -1.97324,9.70044 -9.04105,17.33451 -5.64992,6.10259 -6.67321,8.19441 -4.0086,8.19441 3.07152,0 10.2434,4.16534 11.34869,6.59118 1.83747,4.0328 1.35168,6.6218 -2.24443,11.96171 -6.06885,9.01173 -19.67506,17.54297 -30.11516,18.88253 l -5,0.64155 4.07653,-3.78849 c 2.2421,-2.08366 8.8796,-7.79704 14.75,-12.69639 C 146.19694,200.69274 151,196.12838 151,195.44908 c 0,-0.67931 -0.7118,-1.50825 -1.58179,-1.84209 -2.66825,-1.0239 -11.64732,-0.63854 -16.91821,0.72609 -6.19361,1.60352 -8.71336,4.96093 -10.38462,13.83681 -2.48661,13.20619 -2.52492,13.31718 -4.70289,13.62837 -1.14812,0.16404 -2.68111,-0.417 -3.40663,-1.2912 z M 137.368,176.41789 c 6.99282,-3.90837 14.11693,-10.7118 13.33913,-12.73871 -1.42552,-3.71485 -15.21129,-0.19952 -20.00941,5.10234 -1.86508,2.06089 -1.22004,10.21848 0.808,10.21848 0.6833,0 3.32133,-1.16195 5.86228,-2.58211 z M 239.20297,217.25 c -2.31314,-5.11765 -2.19212,-25.46921 0.22242,-37.40128 1.31019,-6.47468 1.47781,-9.16108 0.66621,-10.67756 -1.53192,-2.86242 -0.48235,-4.80623 4.41416,-8.17512 5.88556,-4.04938 11.5265,-5.19163 17.20252,-3.48339 5.17231,1.55663 12.2164,5.94108 12.4537,7.75154 0.67772,5.1708 0.36323,10.64788 -0.73624,12.82216 -1.63121,3.22582 -7.05576,7.4201 -12.99355,10.04667 -5.1552,2.28039 -5.57985,3.09113 -7.99882,15.27137 -1.15941,5.83798 -2.69571,10.15851 -4.67443,13.14582 -3.72329,5.62115 -6.23856,5.82687 -8.55597,0.69979 z m 21.69825,-32.69892 C 264.34544,182.77 270,176.47376 270,174.41975 c 0,-0.83086 -1.13133,-2.64199 -2.51407,-4.02473 -1.95884,-1.95884 -3.33916,-2.44571 -6.25,-2.20455 L 257.5,168.5 l -0.28893,8.75 c -0.15892,4.8125 -0.0241,8.75 0.29966,8.75 0.32372,0 1.84944,-0.65201 3.39049,-1.44892 z"
         id="path250" />
      <path
         style="fill:#5e5c5f;stroke-width:0.980697"
         d="M 125.33782,303.06937 C 104.20998,295.46298 88.425131,278.55198 82.336354,257 80.639397,250.99341 80.5,245.52791 80.5,185 V 119.5 L 82.841863,112 C 87.917711,95.744199 96.781272,83.449515 109.75894,74.663207 118.50937,68.738879 128.93332,65.176895 141,63.98778 c 12.46452,-1.22832 109.89561,-1.227608 121.55187,8.88e-4 17.49237,1.843586 29.99677,7.595332 41.42364,19.053951 10.95085,10.981281 17.67415,25.148151 18.64945,39.296851 l 0.49359,7.16053 -4.48162,-9 C 309.34914,101.84822 293.74284,89.457006 275.22886,86.03451 271.79199,85.39917 247.57869,85 212.4763,85 c -53.64624,0 -57.63072,0.121318 -64.88029,1.975445 -22.80806,5.833319 -40.30115,24.424065 -44.6869,47.490925 -1.3666,7.18763 -1.20373,121.00215 0.18281,127.74293 2.92604,14.22525 14.53707,30.73574 27.04375,38.4553 3.22538,1.99082 5.86433,3.78071 5.86433,3.97754 0,0.97369 -6.0803,0.0768 -10.66218,-1.57277 z m 32.71862,-9.15983 c -11.91693,-2.33678 -26.12719,-12.30994 -33.25648,-23.34034 -4.12107,-6.37609 -8.17062,-17.92561 -7.62791,-21.75514 0.26578,-1.8754 0.8676,-1.21505 3.17478,3.48353 5.78932,11.78997 18.5704,22.18367 31.65317,25.74067 4.86043,1.32147 93.80489,1.66152 101.5,0.38805 5.86291,-0.97026 15.25223,-5.52118 21.26679,-10.30782 6.80613,-5.41661 11.50533,-11.89282 14.96098,-20.61849 l 2.77223,-7 v -52 -52 l -4.6781,-9.55636 c -4.58436,-9.36488 -7.39643,-12.73721 -16.83908,-20.19399 L 267.5,103.9993 l 3,0.63976 c 12.7496,2.71887 26.26687,13.86539 32.54584,26.83773 5.77951,11.94045 6.1348,16.43521 5.73259,72.52321 -0.33697,46.98944 -0.41709,48.70712 -2.57239,55.14993 -5.90531,17.65269 -21.61786,31.42166 -39.66391,34.75765 -7.11801,1.31583 -101.77656,1.31754 -108.48569,0.002 z m 12.00198,-72.56241 c -1.73158,-2.20133 -1.98458,-3.52041 -1.48649,-7.75 1.60374,-13.61835 11.49398,-46.78376 14.50659,-48.64566 0.64696,-0.39984 2.80645,-0.51527 4.79888,-0.25652 3.12711,0.40611 4.41309,-0.1467 9.402,-4.04164 3.17867,-2.48166 7.98409,-5.24439 10.67871,-6.1394 4.69784,-1.56037 5.06591,-1.54231 8.95,0.43921 2.22787,1.13658 4.73495,3.38974 5.57128,5.00703 1.59922,3.09255 2.00016,8.75593 0.7553,10.66874 -1.34051,2.05978 -15.43198,13.40242 -19.91257,16.02822 -2.4247,1.42097 -4.24048,3.0878 -4.03506,3.70406 0.20542,0.61627 4.02242,2.54251 8.48223,4.28054 9.19034,3.58156 19.15997,9.29331 19.20235,11.0013 0.0825,3.32643 -7.43603,2.04885 -24.6825,-4.19412 C 197.04889,199.552 191.95206,198 190.96283,198 c -1.36481,0 -2.45907,1.98971 -4.53719,8.25 -5.30566,15.98324 -11.31215,21.52363 -16.36722,15.09713 z m 31.63993,-40.93062 c 7.26196,-5.53897 13.96462,-16.46932 10.05165,-16.39172 -2.79644,0.0555 -10.86042,7.23822 -13.71555,12.21673 -1.65862,2.89217 -3.0199,5.59598 -3.02507,6.00848 -0.0199,1.58836 3.44949,0.63738 6.68897,-1.83349 z m -87.77419,39.44178 c -0.90613,-1.69311 -1.04397,-8.21355 -0.5473,-25.88984 0.55023,-19.5828 0.41333,-24.22635 -0.79984,-27.12988 -1.29148,-3.09094 -1.28606,-3.8464 0.0461,-6.42084 2.33896,-4.52018 5.02926,-6.94887 11.71389,-10.57476 C 130.09546,146.71943 131.12358,146.5 140,146.5 c 7.70151,0 10.14281,0.37863 12.89547,2 4.80899,2.83259 7.33868,6.65282 7.45963,11.26517 0.11694,4.45991 -1.73671,7.57484 -10.25189,17.22755 -5.04705,5.72128 -5.25425,6.15502 -3.19722,6.69295 4.87442,1.27469 10.66775,4.96974 11.91564,7.59994 2.07448,4.37237 0.57175,8.04604 -6.34893,15.52101 -7.00405,7.56502 -16.08913,12.7767 -24.62828,14.12807 -6.02356,0.95326 -5.59043,-0.26792 2.29133,-6.46017 3.29532,-2.58895 7.87536,-6.39091 10.17787,-8.44879 2.30251,-2.05789 5.724,-5.08523 7.60332,-6.72743 5.08098,-4.4399 3.84444,-6.31008 -4.13556,-6.25475 -9.87858,0.0685 -14.8788,1.38187 -17.82821,4.68283 -2.48156,2.77734 -3.0213,4.619 -5.64865,19.27362 -0.63717,3.55394 -1.26535,4.56532 -2.98799,4.81068 -1.44532,0.20587 -2.58983,-0.45282 -3.39237,-1.95239 z m 24.45943,-43.8795 C 145.14271,172.16418 151,166.52476 151,163.83167 c 0,-1.90841 -0.4625,-2.0386 -5.85608,-1.64846 -4.45642,0.32235 -7.08552,1.21252 -11,3.72444 -4.86067,3.11908 -5.14392,3.53371 -5.14392,7.52993 0,6.68731 1.37656,7.0601 9.38359,2.54121 z m 101.9792,42.45215 c -3.71729,-5.67331 -3.9586,-19.43161 -0.66975,-38.18637 1.25052,-7.13112 1.36368,-9.82466 0.49303,-11.73553 -0.98898,-2.17058 -0.79031,-2.79675 1.59196,-5.01747 C 245.63961,159.89187 252.0365,157 256.13759,157 c 4.90895,0 11.92581,2.57622 15.1436,5.55992 2.40675,2.23166 2.71881,3.24781 2.71881,8.85319 0,6.19337 -0.0956,6.42025 -4.35944,10.35056 -2.39768,2.21011 -6.4092,4.92509 -8.91447,6.0333 -5.42739,2.40079 -5.89947,3.219 -8.19468,14.20303 -1.90543,9.1187 -3.56075,13.18259 -6.8227,16.75 -2.62022,2.8656 -3.28526,2.82591 -5.34592,-0.31906 z m 22.01694,-34.62802 c 4.58042,-3.00254 7.97105,-8.12236 7.13129,-10.76821 -0.96353,-3.03579 -4.8737,-5.21955 -8.69025,-4.85335 L 257.5,168.5 l -0.28893,8.75 c -0.18634,5.64298 0.085,8.75 0.76402,8.75 0.57913,0 2.56122,-0.98869 4.40464,-2.19708 z"
         id="path248" />
      <path
         style="fill:#222687;stroke-width:0.980697"
         d="M 123.5,301.64506 C 103.22036,294.03774 86.911347,275.2376 82.490587,254.37165 80.324899,244.14962 80.322541,127.71669 82.487792,116.39995 86.553787,95.148913 103.75577,75.206541 124.22693,68.011511 c 10.85073,-3.813727 17.19249,-4.10686 82.30191,-3.804216 L 269.5,64.5 l 8,2.815363 c 9.67896,3.406223 14.61631,6.203426 22.43538,12.71052 11.27666,9.384533 20.08109,25.114447 21.53495,38.474117 l 0.65295,6 -3.8806,-6.76122 C 310.86411,104.883 299.98522,94.513852 288.67079,89.552504 277.27901,84.557236 276.42745,84.5 213.5,84.5 c -64.90897,0 -65.67621,0.06011 -77.65678,6.084123 -14.50861,7.295151 -25.2535,19.130317 -30.98551,34.129577 L 101.5,133.5 v 63.5 63.5 l 2.81307,8 c 4.55156,12.94403 13.19744,24.32666 25.21342,33.19444 3.84865,2.8403 1.62833,2.82211 -6.02649,-0.0494 z m 39,-7.34262 c -5.86879,-0.77839 -13.84776,-3.48103 -19.38332,-6.56552 C 131.02804,281.00095 119.71587,265.77506 118.4231,254.5 l -0.57329,-5 3.46505,5.40876 c 8.01636,12.5131 19.50694,20.88662 32.41533,23.62196 8.53168,1.8079 89.40226,2.11633 98.81194,0.37686 12.87906,-2.38083 24.61594,-10.2938 32.34885,-21.80951 7.97052,-11.86956 7.57412,-8.60767 7.90281,-65.03025 0.18603,-31.93309 -0.0835,-52.19162 -0.73488,-55.22875 -2.08695,-9.73108 -8.69816,-20.37602 -16.90352,-27.21692 -5.61431,-4.6807 -2.99273,-4.88036 5.87791,-0.44765 8.10308,4.04916 17.63201,13.49374 21.18098,20.99347 6.38258,13.48776 6.28572,12.4348 6.28572,68.33203 0,55.35594 -0.10924,56.66982 -5.62895,67.70395 -4.18314,8.36225 -13.49024,17.82272 -21.86139,22.22163 -11.97391,6.29211 -14.77171,6.55569 -68.00966,6.40722 -26.125,-0.0729 -48.85,-0.31152 -50.5,-0.53036 z m 8.59387,-73.43206 c -1.78552,-1.91653 -2.01562,-3.04298 -1.49482,-7.3178 0.85997,-7.05878 7.12822,-31.98266 9.56445,-38.03026 1.11276,-2.76228 2.42154,-6.03482 2.90841,-7.27232 0.72636,-1.84625 1.65523,-2.25 5.17633,-2.25 3.53644,0 5.34285,-0.79313 10.27143,-4.50985 3.28918,-2.48042 8.16182,-5.16923 10.82808,-5.97513 4.24545,-1.28323 5.19738,-1.28448 7.66171,-0.0101 4.35673,2.25295 6.99054,6.25317 6.99054,10.61719 0,3.58229 -0.53266,4.29142 -7.598,10.11514 -6.80336,5.60778 -11.2702,8.86371 -17.03236,12.41509 -1.65646,1.02091 -1.69861,1.31447 -0.36964,2.57455 0.825,0.78223 4.65,2.62968 8.5,4.10543 8.90815,3.41461 18.73501,8.86866 18.3197,10.16771 -0.52082,1.62907 -5.61343,0.57385 -17.8197,-3.69235 -13.65335,-4.77197 -17.24117,-5.47442 -18.61372,-3.64436 -0.55139,0.73519 -1.81004,4.03671 -2.79701,7.33671 -1.9082,6.38021 -7.17102,16.5 -8.58087,16.5 -0.46466,0 -1.51067,0.25551 -2.32449,0.5678 -0.82657,0.31719 -2.41114,-0.43202 -3.59004,-1.69742 z m 30.03876,-38.83484 C 207.77335,177.63691 214,169.42506 214,165.06574 c 0,-2.93973 -2.92909,-2.63189 -7.59996,0.79873 -4.94652,3.63307 -7.3826,6.43404 -10.78424,12.39954 -4.16631,7.30652 -2.02751,8.76869 5.51683,3.77153 z m -86.65179,36.90408 c -0.37953,-1.19577 -0.58045,-13.03386 -0.44651,-26.30687 0.13395,-13.27301 -0.081,-25.93808 -0.47772,-28.14458 -0.65856,-3.66309 -0.42603,-4.31507 2.67481,-7.5 1.86784,-1.9185 5.84239,-4.83817 8.83233,-6.48817 4.97568,-2.74583 6.2473,-3 15.00928,-3 8.69997,0 9.94103,0.24353 13.60813,2.67031 3.10998,2.05808 4.28217,3.64366 5.11272,6.91578 1.40093,5.5192 -0.76864,9.97794 -9.05315,18.60539 -5.96523,6.21217 -6.95952,9.28194 -3.02211,9.33048 0.97976,0.0121 3.69722,0.89158 6.03881,1.95443 8.30514,3.76976 7.71159,10.71459 -1.72197,20.14815 -5.90796,5.90796 -15.05971,11.22658 -21.34722,12.40612 -2.02853,0.38056 -3.68824,0.43601 -3.68824,0.12322 0,-0.31278 3.0375,-2.99869 6.75,-5.96868 3.7125,-2.96999 9.89367,-8.32762 13.73594,-11.90584 6.15098,-5.72828 6.82358,-6.70148 5.62755,-8.14261 -1.64362,-1.98044 -13.99943,-2.15994 -21.08213,-0.30627 -6.82818,1.78706 -8.63507,5.27565 -11.73456,22.65614 -0.89323,5.00883 -3.63072,6.68737 -4.81596,2.953 z m 22.809,-41.07401 c 5.02498,-2.54746 13.34602,-9.3167 14.8061,-12.04488 2.8149,-5.25969 -7.26157,-6.69109 -15.697,-2.22981 -7.48559,3.95894 -8.39894,5.08962 -8.39894,10.3974 0,2.57309 0.3,4.97835 0.66667,5.34501 1.22344,1.22345 4.37174,0.68759 8.62317,-1.46772 z M 240.25026,216.25 c -2.01083,-4.57651 -2.06441,-22.04627 -0.10044,-32.75 0.70642,-3.85 1.2992,-9.67717 1.31729,-12.94927 0.0323,-5.83432 0.11366,-6.0061 4.21257,-8.89004 5.71015,-4.01757 12.34645,-4.62741 18.8844,-1.73537 7.62989,3.37507 8.43592,4.47914 8.43592,11.55535 0,5.13242 -0.37859,6.51152 -2.25,8.19625 -4.06548,3.65992 -5.16016,3.72738 -2.43143,0.14984 3.38237,-4.43453 3.39203,-7.2637 0.0354,-10.37451 -1.95479,-1.81164 -3.768,-2.45225 -6.94098,-2.45225 -2.36222,0 -4.5174,0.35992 -4.78928,0.79983 -0.27187,0.43991 -0.61085,5.27741 -0.75329,10.75 -0.14243,5.47259 -0.79634,10.85017 -1.45312,11.95017 -0.65679,1.1 -1.97219,6.05 -2.92311,11 -1.73241,9.018 -3.40257,13.47993 -6.26977,16.75 -2.23619,2.55041 -3.13327,2.18972 -4.97416,-2 z"
         id="path246" />
      <path
         style="fill:#141878;stroke-width:0.980697"
         d="m 118.06299,298.23538 c -5.30192,-2.65434 -11.84202,-6.91779 -14.92566,-9.72995 -6.313876,-5.758 -14.127714,-17.19106 -17.005068,-24.88148 C 82.44926,253.78025 82,244.92106 82,182.13774 82,116.90107 81.972991,117.2973 87.322549,104.05313 92.466267,91.318567 103.8825,79.000277 116.80463,72.241529 129.77231,65.458949 129.28002,65.49731 203,65.524777 l 66.5,0.02478 8.12231,2.728391 c 7.90978,2.657 18.98662,9.183386 24.71218,14.560211 8.62575,8.100381 16.94605,24.324391 19.05801,37.161841 0.48202,2.92995 -0.0253,2.35989 -3.11512,-3.5 C 313.21327,106.8957 300.74119,94.404677 292,90.182715 278.10959,83.473695 279.36038,83.588545 216.38625,83.239679 162.31596,82.940138 158.7839,83.02992 150.10311,84.924528 131.1143,89.068895 115.36758,101.1969 107.15868,118 100.12228,132.40308 100,133.76953 100,198 c 0,47.27222 0.25885,58.09976 1.53384,64.16088 2.88974,13.73734 12.47371,28.96692 22.85981,36.32579 6.04253,4.28131 6.28094,4.51816 4.52302,4.49329 -0.77917,-0.011 -5.66333,-2.14609 -10.85368,-4.74458 z M 162.5,294.30244 c -5.86879,-0.77839 -13.84776,-3.48103 -19.38332,-6.56552 C 131.02804,281.00095 119.71587,265.77506 118.4231,254.5 l -0.57329,-5 3.46505,5.40876 c 8.01636,12.5131 19.50694,20.88662 32.41533,23.62196 8.53168,1.8079 89.40226,2.11633 98.81194,0.37686 12.87906,-2.38083 24.61594,-10.2938 32.34885,-21.80951 7.97052,-11.86956 7.57412,-8.60767 7.90281,-65.03025 0.18603,-31.93309 -0.0835,-52.19162 -0.73488,-55.22875 -2.08695,-9.73108 -8.69816,-20.37602 -16.90352,-27.21692 -5.61431,-4.6807 -2.99273,-4.88036 5.87791,-0.44765 8.10308,4.04916 17.63201,13.49374 21.18098,20.99347 6.38258,13.48776 6.28572,12.4348 6.28572,68.33203 0,55.35594 -0.10924,56.66982 -5.62895,67.70395 -4.18314,8.36225 -13.49024,17.82272 -21.86139,22.22163 -11.97391,6.29211 -14.77171,6.55569 -68.00966,6.40722 -26.125,-0.0729 -48.85,-0.31152 -50.5,-0.53036 z m 8.59387,-73.43206 c -1.78552,-1.91653 -2.01562,-3.04298 -1.49482,-7.3178 0.85997,-7.05878 7.12822,-31.98266 9.56445,-38.03026 1.11276,-2.76228 2.42154,-6.03482 2.90841,-7.27232 0.72636,-1.84625 1.65523,-2.25 5.17633,-2.25 3.53644,0 5.34285,-0.79313 10.27143,-4.50985 3.28918,-2.48042 8.16182,-5.16923 10.82808,-5.97513 4.24545,-1.28323 5.19738,-1.28448 7.66171,-0.0101 4.35673,2.25295 6.99054,6.25317 6.99054,10.61719 0,3.58229 -0.53266,4.29142 -7.598,10.11514 -6.80336,5.60778 -11.2702,8.86371 -17.03236,12.41509 -1.65646,1.02091 -1.69861,1.31447 -0.36964,2.57455 0.825,0.78223 4.65,2.62968 8.5,4.10543 8.90815,3.41461 18.73501,8.86866 18.3197,10.16771 -0.52082,1.62907 -5.61343,0.57385 -17.8197,-3.69235 -13.65335,-4.77197 -17.24117,-5.47442 -18.61372,-3.64436 -0.55139,0.73519 -1.81004,4.03671 -2.79701,7.33671 -1.9082,6.38021 -7.17102,16.5 -8.58087,16.5 -0.46466,0 -1.51067,0.25551 -2.32449,0.5678 -0.82657,0.31719 -2.41114,-0.43202 -3.59004,-1.69742 z m 30.03876,-38.83484 C 207.77335,177.63691 214,169.42506 214,165.06574 c 0,-2.93973 -2.92909,-2.63189 -7.59996,0.79873 -4.94652,3.63307 -7.3826,6.43404 -10.78424,12.39954 -4.16631,7.30652 -2.02751,8.76869 5.51683,3.77153 z m -86.65179,36.90408 c -0.37953,-1.19577 -0.58045,-13.03386 -0.44651,-26.30687 0.13395,-13.27301 -0.081,-25.93808 -0.47772,-28.14458 -0.65856,-3.66309 -0.42603,-4.31507 2.67481,-7.5 1.86784,-1.9185 5.84239,-4.83817 8.83233,-6.48817 4.97568,-2.74583 6.2473,-3 15.00928,-3 8.69997,0 9.94103,0.24353 13.60813,2.67031 3.10998,2.05808 4.28217,3.64366 5.11272,6.91578 1.40093,5.5192 -0.76864,9.97794 -9.05315,18.60539 -5.96523,6.21217 -6.95952,9.28194 -3.02211,9.33048 0.97976,0.0121 3.69722,0.89158 6.03881,1.95443 8.30514,3.76976 7.71159,10.71459 -1.72197,20.14815 -5.90796,5.90796 -15.05971,11.22658 -21.34722,12.40612 -2.02853,0.38056 -3.68824,0.43601 -3.68824,0.12322 0,-0.31278 3.0375,-2.99869 6.75,-5.96868 3.7125,-2.96999 9.89367,-8.32762 13.73594,-11.90584 6.15098,-5.72828 6.82358,-6.70148 5.62755,-8.14261 -1.64362,-1.98044 -13.99943,-2.15994 -21.08213,-0.30627 -6.82818,1.78706 -8.63507,5.27565 -11.73456,22.65614 -0.89323,5.00883 -3.63072,6.68737 -4.81596,2.953 z m 22.809,-41.07401 c 5.02498,-2.54746 13.34602,-9.3167 14.8061,-12.04488 2.8149,-5.25969 -7.26157,-6.69109 -15.697,-2.22981 -7.48559,3.95894 -8.39894,5.08962 -8.39894,10.3974 0,2.57309 0.3,4.97835 0.66667,5.34501 1.22344,1.22345 4.37174,0.68759 8.62317,-1.46772 z M 240.25026,216.25 c -2.01083,-4.57651 -2.06441,-22.04627 -0.10044,-32.75 0.70642,-3.85 1.2992,-9.67717 1.31729,-12.94927 0.0323,-5.83432 0.11366,-6.0061 4.21257,-8.89004 5.71015,-4.01757 12.34645,-4.62741 18.8844,-1.73537 7.62989,3.37507 8.43592,4.47914 8.43592,11.55535 0,5.13242 -0.37859,6.51152 -2.25,8.19625 -4.06548,3.65992 -5.16016,3.72738 -2.43143,0.14984 3.38237,-4.43453 3.39203,-7.2637 0.0354,-10.37451 -1.95479,-1.81164 -3.768,-2.45225 -6.94098,-2.45225 -2.36222,0 -4.5174,0.35992 -4.78928,0.79983 -0.27187,0.43991 -0.61085,5.27741 -0.75329,10.75 -0.14243,5.47259 -0.79634,10.85017 -1.45312,11.95017 -0.65679,1.1 -1.97219,6.05 -2.92311,11 -1.73241,9.018 -3.40257,13.47993 -6.26977,16.75 -2.23619,2.55041 -3.13327,2.18972 -4.97416,-2 z"
         id="path244" />
      <path
         style="fill:#6c0426;stroke-width:0.980697"
         d="m 162.5,294.30244 c -5.86879,-0.77839 -13.84776,-3.48103 -19.38332,-6.56552 C 131.02804,281.00095 119.71587,265.77506 118.4231,254.5 l -0.57329,-5 3.46505,5.40876 c 8.01636,12.5131 19.50694,20.88662 32.41533,23.62196 8.53168,1.8079 89.40226,2.11633 98.81194,0.37686 12.87906,-2.38083 24.61594,-10.2938 32.34885,-21.80951 7.97052,-11.86956 7.57412,-8.60767 7.90281,-65.03025 0.18603,-31.93309 -0.0835,-52.19162 -0.73488,-55.22875 -2.08695,-9.73108 -8.69816,-20.37602 -16.90352,-27.21692 -5.61431,-4.6807 -2.99273,-4.88036 5.87791,-0.44765 8.10308,4.04916 17.63201,13.49374 21.18098,20.99347 6.38258,13.48776 6.28572,12.4348 6.28572,68.33203 0,55.35594 -0.10924,56.66982 -5.62895,67.70395 -4.18314,8.36225 -13.49024,17.82272 -21.86139,22.22163 -11.97391,6.29211 -14.77171,6.55569 -68.00966,6.40722 -26.125,-0.0729 -48.85,-0.31152 -50.5,-0.53036 z m 8.59387,-73.43206 c -1.78552,-1.91653 -2.01562,-3.04298 -1.49482,-7.3178 0.85997,-7.05878 7.12822,-31.98266 9.56445,-38.03026 1.11276,-2.76228 2.42154,-6.03482 2.90841,-7.27232 0.72636,-1.84625 1.65523,-2.25 5.17633,-2.25 3.53644,0 5.34285,-0.79313 10.27143,-4.50985 3.28918,-2.48042 8.16182,-5.16923 10.82808,-5.97513 4.24545,-1.28323 5.19738,-1.28448 7.66171,-0.0101 4.35673,2.25295 6.99054,6.25317 6.99054,10.61719 0,3.58229 -0.53266,4.29142 -7.598,10.11514 -6.80336,5.60778 -11.2702,8.86371 -17.03236,12.41509 -1.65646,1.02091 -1.69861,1.31447 -0.36964,2.57455 0.825,0.78223 4.65,2.62968 8.5,4.10543 8.90815,3.41461 18.73501,8.86866 18.3197,10.16771 -0.52082,1.62907 -5.61343,0.57385 -17.8197,-3.69235 -13.65335,-4.77197 -17.24117,-5.47442 -18.61372,-3.64436 -0.55139,0.73519 -1.81004,4.03671 -2.79701,7.33671 -1.9082,6.38021 -7.17102,16.5 -8.58087,16.5 -0.46466,0 -1.51067,0.25551 -2.32449,0.5678 -0.82657,0.31719 -2.41114,-0.43202 -3.59004,-1.69742 z m 30.03876,-38.83484 C 207.77335,177.63691 214,169.42506 214,165.06574 c 0,-2.93973 -2.92909,-2.63189 -7.59996,0.79873 -4.94652,3.63307 -7.3826,6.43404 -10.78424,12.39954 -4.16631,7.30652 -2.02751,8.76869 5.51683,3.77153 z m -86.65179,36.90408 c -0.37953,-1.19577 -0.58045,-13.03386 -0.44651,-26.30687 0.13395,-13.27301 -0.081,-25.93808 -0.47772,-28.14458 -0.65856,-3.66309 -0.42603,-4.31507 2.67481,-7.5 1.86784,-1.9185 5.84239,-4.83817 8.83233,-6.48817 4.97568,-2.74583 6.2473,-3 15.00928,-3 8.69997,0 9.94103,0.24353 13.60813,2.67031 3.10998,2.05808 4.28217,3.64366 5.11272,6.91578 1.40093,5.5192 -0.76864,9.97794 -9.05315,18.60539 -5.96523,6.21217 -6.95952,9.28194 -3.02211,9.33048 0.97976,0.0121 3.69722,0.89158 6.03881,1.95443 8.30514,3.76976 7.71159,10.71459 -1.72197,20.14815 -5.90796,5.90796 -15.05971,11.22658 -21.34722,12.40612 -2.02853,0.38056 -3.68824,0.43601 -3.68824,0.12322 0,-0.31278 3.0375,-2.99869 6.75,-5.96868 3.7125,-2.96999 9.89367,-8.32762 13.73594,-11.90584 6.15098,-5.72828 6.82358,-6.70148 5.62755,-8.14261 -1.64362,-1.98044 -13.99943,-2.15994 -21.08213,-0.30627 -6.82818,1.78706 -8.63507,5.27565 -11.73456,22.65614 -0.89323,5.00883 -3.63072,6.68737 -4.81596,2.953 z m 22.809,-41.07401 c 5.02498,-2.54746 13.34602,-9.3167 14.8061,-12.04488 2.8149,-5.25969 -7.26157,-6.69109 -15.697,-2.22981 -7.48559,3.95894 -8.39894,5.08962 -8.39894,10.3974 0,2.57309 0.3,4.97835 0.66667,5.34501 1.22344,1.22345 4.37174,0.68759 8.62317,-1.46772 z M 240.25026,216.25 c -2.01083,-4.57651 -2.06441,-22.04627 -0.10044,-32.75 0.70642,-3.85 1.2992,-9.67717 1.31729,-12.94927 0.0323,-5.83432 0.11366,-6.0061 4.21257,-8.89004 5.71015,-4.01757 12.34645,-4.62741 18.8844,-1.73537 7.62989,3.37507 8.43592,4.47914 8.43592,11.55535 0,5.13242 -0.37859,6.51152 -2.25,8.19625 -4.06548,3.65992 -5.16016,3.72738 -2.43143,0.14984 3.38237,-4.43453 3.39203,-7.2637 0.0354,-10.37451 -1.95479,-1.81164 -3.768,-2.45225 -6.94098,-2.45225 -2.36222,0 -4.5174,0.35992 -4.78928,0.79983 -0.27187,0.43991 -0.61085,5.27741 -0.75329,10.75 -0.14243,5.47259 -0.79634,10.85017 -1.45312,11.95017 -0.65679,1.1 -1.97219,6.05 -2.92311,11 -1.73241,9.018 -3.40257,13.47993 -6.26977,16.75 -2.23619,2.55041 -3.13327,2.18972 -4.97416,-2 z"
         id="path242" />
      <path
         style="fill:#0b0b0b;stroke-width:0.980697"
         d="m 171.09387,220.87038 c -1.78552,-1.91653 -2.01562,-3.04298 -1.49482,-7.3178 0.85997,-7.05878 7.12822,-31.98266 9.56445,-38.03026 1.11276,-2.76228 2.42154,-6.03482 2.90841,-7.27232 0.72636,-1.84625 1.65523,-2.25 5.17633,-2.25 3.53644,0 5.34285,-0.79313 10.27143,-4.50985 3.28918,-2.48042 8.16182,-5.16923 10.82808,-5.97513 4.24545,-1.28323 5.19738,-1.28448 7.66171,-0.0101 4.35673,2.25295 6.99054,6.25317 6.99054,10.61719 0,3.58229 -0.53266,4.29142 -7.598,10.11514 -6.80336,5.60778 -11.2702,8.86371 -17.03236,12.41509 -1.65646,1.02091 -1.69861,1.31447 -0.36964,2.57455 0.825,0.78223 4.65,2.62968 8.5,4.10543 8.90815,3.41461 18.73501,8.86866 18.3197,10.16771 -0.52082,1.62907 -5.61343,0.57385 -17.8197,-3.69235 -13.65335,-4.77197 -17.24117,-5.47442 -18.61372,-3.64436 -0.55139,0.73519 -1.81004,4.03671 -2.79701,7.33671 -1.9082,6.38021 -7.17102,16.5 -8.58087,16.5 -0.46466,0 -1.51067,0.25551 -2.32449,0.5678 -0.82657,0.31719 -2.41114,-0.43202 -3.59004,-1.69742 z m 30.03876,-38.83484 C 207.77335,177.63691 214,169.42506 214,165.06574 c 0,-2.93973 -2.92909,-2.63189 -7.59996,0.79873 -4.94652,3.63307 -7.3826,6.43404 -10.78424,12.39954 -4.16631,7.30652 -2.02751,8.76869 5.51683,3.77153 z m -86.65179,36.90408 c -0.37953,-1.19577 -0.58045,-13.03386 -0.44651,-26.30687 0.13395,-13.27301 -0.081,-25.93808 -0.47772,-28.14458 -0.65856,-3.66309 -0.42603,-4.31507 2.67481,-7.5 1.86784,-1.9185 5.84239,-4.83817 8.83233,-6.48817 4.97568,-2.74583 6.2473,-3 15.00928,-3 8.69997,0 9.94103,0.24353 13.60813,2.67031 3.10998,2.05808 4.28217,3.64366 5.11272,6.91578 1.40093,5.5192 -0.76864,9.97794 -9.05315,18.60539 -5.96523,6.21217 -6.95952,9.28194 -3.02211,9.33048 0.97976,0.0121 3.69722,0.89158 6.03881,1.95443 8.30514,3.76976 7.71159,10.71459 -1.72197,20.14815 -5.90796,5.90796 -15.05971,11.22658 -21.34722,12.40612 -2.02853,0.38056 -3.68824,0.43601 -3.68824,0.12322 0,-0.31278 3.0375,-2.99869 6.75,-5.96868 3.7125,-2.96999 9.89367,-8.32762 13.73594,-11.90584 6.15098,-5.72828 6.82358,-6.70148 5.62755,-8.14261 -1.64362,-1.98044 -13.99943,-2.15994 -21.08213,-0.30627 -6.82818,1.78706 -8.63507,5.27565 -11.73456,22.65614 -0.89323,5.00883 -3.63072,6.68737 -4.81596,2.953 z m 22.809,-41.07401 c 5.02498,-2.54746 13.34602,-9.3167 14.8061,-12.04488 2.8149,-5.25969 -7.26157,-6.69109 -15.697,-2.22981 -7.48559,3.95894 -8.39894,5.08962 -8.39894,10.3974 0,2.57309 0.3,4.97835 0.66667,5.34501 1.22344,1.22345 4.37174,0.68759 8.62317,-1.46772 z M 240.25026,216.25 c -2.01083,-4.57651 -2.06441,-22.04627 -0.10044,-32.75 0.70642,-3.85 1.2992,-9.67717 1.31729,-12.94927 0.0323,-5.83432 0.11366,-6.0061 4.21257,-8.89004 5.71015,-4.01757 12.34645,-4.62741 18.8844,-1.73537 7.62989,3.37507 8.43592,4.47914 8.43592,11.55535 0,5.13242 -0.37859,6.51152 -2.25,8.19625 -4.06548,3.65992 -5.16016,3.72738 -2.43143,0.14984 3.38237,-4.43453 3.39203,-7.2637 0.0354,-10.37451 -1.95479,-1.81164 -3.768,-2.45225 -6.94098,-2.45225 -2.36222,0 -4.5174,0.35992 -4.78928,0.79983 -0.27187,0.43991 -0.61085,5.27741 -0.75329,10.75 -0.14243,5.47259 -0.79634,10.85017 -1.45312,11.95017 -0.65679,1.1 -1.97219,6.05 -2.92311,11 -1.73241,9.018 -3.40257,13.47993 -6.26977,16.75 -2.23619,2.55041 -3.13327,2.18972 -4.97416,-2 z"
         id="path240" />
    </g>
  </g>
</svg>
